# xmcd CD database file
#
# Track frame offsets:
#	150
#	1855
#	20067
#	58775
#	80382
#	126570
#	153580
#	194630
#	218765
#	253237
#
# Disc length: 4002 seconds
#
# Revision: 8
# Processed by: cddbd v1.5.2PL0 Copyright (c) Steve Scherf et al.
# Submitted via: CDex 1.51
#
DISCID=8f0fa00a
DTITLE=Luther Allison - Live In Chicago - CD1
DYEAR=1999
DGENRE=Blues
TTITLE0=Intro (Live)
TTITLE1=Soul Fixin' Man (Live)
TTITLE2=Cherry Red Wine (Live)
TTITLE3=Move From The Hood (Live)
TTITLE4=Bad Love (Live)
TTITLE5=Put Your Money Where Your Mouth Is (Live)
TTITLE6=Big City (Live)
TTITLE7=Give Me Back My Wig (Live)
TTITLE8=It Hurts Me Too (Live)
TTITLE9=Medley -- Gambler's Blues - Sweet Little Angel (Live)
EXTD=YEAR: 1999
EXTT0=
EXTT1=
EXTT2=
EXTT3=
EXTT4=
EXTT5=
EXTT6=
EXTT7=
EXTT8=
EXTT9=
PLAYORDER=
